<svg xmlns="http://www.w3.org/2000/svg" viewBox="0 0 219.37 34.99"><defs><style>.cls-1{fill:#fff;}</style></defs><g id="Capa_2" data-name="Capa 2"><g id="Capa_1-2" data-name="Capa 1"><path class="cls-1" d="M30.81.44V5.59H18.7v29H12.11v-29H0V.44Z"/><path class="cls-1" d="M40.16.44V20.29a10.87,10.87,0,0,0,.92,4.86,7.19,7.19,0,0,0,3,3A9.55,9.55,0,0,0,48.9,29.3,10.94,10.94,0,0,0,54,28.19a7,7,0,0,0,3.09-3,11.89,11.89,0,0,0,1-5.31V.44H64.7V20.7q0,6.89-4.13,10.59T48.9,35a18.71,18.71,0,0,1-8.21-1.69,12,12,0,0,1-5.31-4.87A14.76,14.76,0,0,1,33.55,21V.44Z"/><path class="cls-1" d="M88.46.44v29H105v5.16H81.87V.44Z"/><path class="cls-1" d="M124,0a20.43,20.43,0,0,1,9.53,2.19,16.81,16.81,0,0,1,6.75,6.29,17,17,0,0,1,2.52,9,16.91,16.91,0,0,1-2.46,8.88,16.83,16.83,0,0,1-6.74,6.35A20.42,20.42,0,0,1,124,35a20.26,20.26,0,0,1-9.63-2.3,16.89,16.89,0,0,1-9.17-15.19,17.07,17.07,0,0,1,2.42-8.81,16.77,16.77,0,0,1,6.66-6.41A20.34,20.34,0,0,1,124,0ZM112,17.5a12.11,12.11,0,0,0,1.54,6.11,10.68,10.68,0,0,0,4.28,4.2A12.88,12.88,0,0,0,124,29.3a11.85,11.85,0,0,0,8.63-3.3A11.37,11.37,0,0,0,136,17.5a12.24,12.24,0,0,0-1.53-6.11,10.48,10.48,0,0,0-4.29-4.21,13.77,13.77,0,0,0-12.48,0,10.39,10.39,0,0,0-4.26,4.2A12.48,12.48,0,0,0,112,17.5Z"/><path class="cls-1" d="M164.88,0a30.11,30.11,0,0,1,12.5,2.81v6a26.86,26.86,0,0,0-12.21-3.15,14.4,14.4,0,0,0-6.64,1.49,10.63,10.63,0,0,0-4.5,4.28,12.34,12.34,0,0,0-1.6,6.24,10.86,10.86,0,0,0,3.48,8.41,13,13,0,0,0,9.16,3.19,16.06,16.06,0,0,0,3-.27,19.84,19.84,0,0,0,3.41-1V22.34h-5.64V17.19h12.23V31.25A19.89,19.89,0,0,1,172,34a27,27,0,0,1-7.34,1,21.16,21.16,0,0,1-9.77-2.23,16.56,16.56,0,0,1-6.84-6.22,16.73,16.73,0,0,1-2.45-8.94,17.08,17.08,0,0,1,2.47-9.06A16.84,16.84,0,0,1,155,2.25,21.53,21.53,0,0,1,164.88,0Z"/><path class="cls-1" d="M200.57,0a20.5,20.5,0,0,1,9.54,2.19,16.81,16.81,0,0,1,6.75,6.29,17,17,0,0,1,2.51,9,17.13,17.13,0,0,1-9.19,15.23A20.48,20.48,0,0,1,200.52,35a20.26,20.26,0,0,1-9.63-2.3,16.86,16.86,0,0,1-9.16-15.19,17.16,17.16,0,0,1,2.41-8.81,16.79,16.79,0,0,1,6.67-6.41A20.3,20.3,0,0,1,200.57,0Zm-12,17.5a12.11,12.11,0,0,0,1.54,6.11,10.68,10.68,0,0,0,4.28,4.2,12.84,12.84,0,0,0,6.21,1.49A11.84,11.84,0,0,0,209.2,26a11.33,11.33,0,0,0,3.38-8.5,12.23,12.23,0,0,0-1.52-6.11,10.5,10.5,0,0,0-4.3-4.21,13,13,0,0,0-6.24-1.49,12.84,12.84,0,0,0-6.23,1.5,10.39,10.39,0,0,0-4.26,4.2A12.37,12.37,0,0,0,188.54,17.5Z"/></g></g></svg>