<svg xmlns="http://www.w3.org/2000/svg" viewBox="0 0 149.81 82.31"><defs><style>.cls-1{fill:#bea67c;}</style></defs><title>Asset 6</title><g id="Layer_2" data-name="Layer 2"><g id="Layer_1-2" data-name="Layer 1"><path class="cls-1" d="M78.52,7.45,77.3,5.38a2.38,2.38,0,0,0-.95-.9l-1.52-.8V3.57l-.1.06,0,0v.05l-1.29.79a2.38,2.38,0,0,0-.81.82L71.33,7.41a4,4,0,0,0-.55,2.21l.32,3.51a4,4,0,0,0,1.05,2.55l.57.62a2.38,2.38,0,0,1,.58,2.08L71.94,25A2.38,2.38,0,0,0,72,26.26l1.57,4.37a2.38,2.38,0,0,1,.14.85l-.92,46.87a2.38,2.38,0,0,0,.36,1.3l1.63,2.62v0l1.79-2.58a2.38,2.38,0,0,0,.42-1.4L76.1,31.52a2.38,2.38,0,0,1,.14-.85l1.57-4.37A2.38,2.38,0,0,0,77.91,25l-1.35-6.59a2.38,2.38,0,0,1,.58-2.08l.57-.62a4,4,0,0,0,1.05-2.55l.32-3.51A4,4,0,0,0,78.52,7.45Z"/><path class="cls-1" d="M70.94,20.69l-4,10.47a1.58,1.58,0,0,1-.84.89C62.19,33.79,40.42,43.5,39.24,43.89s-13.83-2.08-16.87-2.68a1.58,1.58,0,0,1-1-.69l-4.07-6.19A1.6,1.6,0,0,1,17.86,32L30.79,25.2a1.6,1.6,0,0,1,.48-.16l37.91-6.49a1.6,1.6,0,0,1,1.57.65h0A1.6,1.6,0,0,1,70.94,20.69Z"/><path class="cls-1" d="M78.91,20.69l4,10.47a1.58,1.58,0,0,0,.84.89c3.91,1.75,25.69,11.45,26.87,11.84s13.83-2.08,16.87-2.68a1.58,1.58,0,0,0,1-.69l4.07-6.19A1.6,1.6,0,0,0,132,32L119.06,25.2a1.6,1.6,0,0,0-.48-.16L80.67,18.54a1.6,1.6,0,0,0-1.57.65h0A1.6,1.6,0,0,0,78.91,20.69Z"/><path class="cls-1" d="M28.1,23.3c11.77-1.95,32.56-5.45,39-6.54A2.2,2.2,0,0,0,69,14.41h0a2.2,2.2,0,0,0-1.2-1.78L48.7,3a2.2,2.2,0,0,0-.81-.23L15.25,0a2.2,2.2,0,0,0-.84.09l-12.86,4A2.2,2.2,0,0,0,.1,6.85l1.5,4.76a2.18,2.18,0,0,0,.82,1.13c1.56,1.11,5.91,4.19,9.86,6.94A2.19,2.19,0,0,0,13,20l14.21,3.25A2.17,2.17,0,0,0,28.1,23.3Z"/><path class="cls-1" d="M121.71,23.32c-11.77-1.95-32.56-5.45-39-6.54a2.2,2.2,0,0,1-1.82-2.35h0A2.2,2.2,0,0,1,82,12.65L101.1,3a2.2,2.2,0,0,1,.81-.23L134.56,0a2.2,2.2,0,0,1,.84.09l12.86,4a2.2,2.2,0,0,1,1.45,2.76l-1.5,4.76a2.18,2.18,0,0,1-.82,1.13c-1.56,1.11-5.91,4.19-9.86,6.94a2.19,2.19,0,0,1-.76.34L122.55,23.3A2.17,2.17,0,0,1,121.71,23.32Z"/></g></g></svg>